<svg xmlns="http://www.w3.org/2000/svg" version="1.1" xmlns:xlink="http://www.w3.org/1999/xlink" xmlns:svgjs="http://svgjs.dev/svgjs" width="400" height="950" preserveAspectRatio="none" viewBox="0 0 400 950"><g mask="url(&quot;#SvgjsMask1082&quot;)" fill="none"><rect width="400" height="950" x="0" y="0" fill="rgba(0, 0, 0, 1)"></rect><path d="M268 838L505 1075" stroke-width="6" stroke="url(&quot;#SvgjsLinearGradient1083&quot;)" stroke-linecap="round" class="TopLeft"></path><path d="M45 193L165 313" stroke-width="8" stroke="url(&quot;#SvgjsLinearGradient1084&quot;)" stroke-linecap="round" class="BottomRight"></path><path d="M83 790L-80 627" stroke-width="6" stroke="url(&quot;#SvgjsLinearGradient1084&quot;)" stroke-linecap="round" class="BottomRight"></path><path d="M29 418L305 694" stroke-width="8" stroke="url(&quot;#SvgjsLinearGradient1084&quot;)" stroke-linecap="round" class="BottomRight"></path><path d="M344 571L225 452" stroke-width="8" stroke="url(&quot;#SvgjsLinearGradient1083&quot;)" stroke-linecap="round" class="TopLeft"></path><path d="M334 757L625 1048" stroke-width="6" stroke="url(&quot;#SvgjsLinearGradient1084&quot;)" stroke-linecap="round" class="BottomRight"></path><path d="M73 337L289 553" stroke-width="8" stroke="url(&quot;#SvgjsLinearGradient1084&quot;)" stroke-linecap="round" class="BottomRight"></path><path d="M117 168L219 270" stroke-width="10" stroke="url(&quot;#SvgjsLinearGradient1083&quot;)" stroke-linecap="round" class="TopLeft"></path><path d="M115 297L327 509" stroke-width="8" stroke="url(&quot;#SvgjsLinearGradient1083&quot;)" stroke-linecap="round" class="TopLeft"></path><path d="M250 478L143 371" stroke-width="8" stroke="url(&quot;#SvgjsLinearGradient1083&quot;)" stroke-linecap="round" class="TopLeft"></path><path d="M121 888L315 1082" stroke-width="6" stroke="url(&quot;#SvgjsLinearGradient1084&quot;)" stroke-linecap="round" class="BottomRight"></path><path d="M1 368L272 639" stroke-width="10" stroke="url(&quot;#SvgjsLinearGradient1084&quot;)" stroke-linecap="round" class="BottomRight"></path><path d="M2 699L183 880" stroke-width="6" stroke="url(&quot;#SvgjsLinearGradient1084&quot;)" stroke-linecap="round" class="BottomRight"></path><path d="M332 172L483 323" stroke-width="8" stroke="url(&quot;#SvgjsLinearGradient1084&quot;)" stroke-linecap="round" class="BottomRight"></path><path d="M4 685L-251 430" stroke-width="8" stroke="url(&quot;#SvgjsLinearGradient1084&quot;)" stroke-linecap="round" class="BottomRight"></path><path d="M398 672L208 482" stroke-width="8" stroke="url(&quot;#SvgjsLinearGradient1083&quot;)" stroke-linecap="round" class="TopLeft"></path><path d="M300 59L468 227" stroke-width="10" stroke="url(&quot;#SvgjsLinearGradient1083&quot;)" stroke-linecap="round" class="TopLeft"></path><path d="M283 87L150 -46" stroke-width="8" stroke="url(&quot;#SvgjsLinearGradient1083&quot;)" stroke-linecap="round" class="TopLeft"></path><path d="M282 226L385 329" stroke-width="6" stroke="url(&quot;#SvgjsLinearGradient1083&quot;)" stroke-linecap="round" class="TopLeft"></path><path d="M291 825L175 709" stroke-width="6" stroke="url(&quot;#SvgjsLinearGradient1083&quot;)" stroke-linecap="round" class="TopLeft"></path><path d="M166 150L420 404" stroke-width="6" stroke="url(&quot;#SvgjsLinearGradient1084&quot;)" stroke-linecap="round" class="BottomRight"></path><path d="M58 746L-197 491" stroke-width="6" stroke="url(&quot;#SvgjsLinearGradient1083&quot;)" stroke-linecap="round" class="TopLeft"></path><path d="M335 691L625 981" stroke-width="6" stroke="url(&quot;#SvgjsLinearGradient1083&quot;)" stroke-linecap="round" class="TopLeft"></path><path d="M53 894L-218 623" stroke-width="10" stroke="url(&quot;#SvgjsLinearGradient1084&quot;)" stroke-linecap="round" class="BottomRight"></path><path d="M386 849L576 1039" stroke-width="6" stroke="url(&quot;#SvgjsLinearGradient1084&quot;)" stroke-linecap="round" class="BottomRight"></path><path d="M192 274L446 528" stroke-width="10" stroke="url(&quot;#SvgjsLinearGradient1083&quot;)" stroke-linecap="round" class="TopLeft"></path></g><defs><mask id="SvgjsMask1082"><rect width="400" height="950" fill="#ffffff"></rect></mask><linearGradient x1="100%" y1="100%" x2="0%" y2="0%" id="SvgjsLinearGradient1083"><stop stop-color="rgba(192, 192, 192, 0)" offset="0"></stop><stop stop-color="rgba(192, 192, 192, 1)" offset="1"></stop></linearGradient><linearGradient x1="0%" y1="0%" x2="100%" y2="100%" id="SvgjsLinearGradient1084"><stop stop-color="rgba(192, 192, 192, 0)" offset="0"></stop><stop stop-color="rgba(192, 192, 192, 1)" offset="1"></stop></linearGradient></defs></svg>