<svg xmlns="http://www.w3.org/2000/svg" version="1.1" xmlns:xlink="http://www.w3.org/1999/xlink" xmlns:svgjs="http://svgjs.dev/svgjs" width="400" height="950" preserveAspectRatio="none" viewBox="0 0 400 950"><g mask="url(&quot;#SvgjsMask1085&quot;)" fill="none"><rect width="400" height="950" x="0" y="0" fill="rgba(0, 0, 0, 1)"></rect><path d="M372 847L95 570" stroke-width="10" stroke="url(&quot;#SvgjsLinearGradient1086&quot;)" stroke-linecap="round" class="BottomRight"></path><path d="M359 666L212 519" stroke-width="8" stroke="url(&quot;#SvgjsLinearGradient1087&quot;)" stroke-linecap="round" class="TopLeft"></path><path d="M326 561L557 792" stroke-width="6" stroke="url(&quot;#SvgjsLinearGradient1086&quot;)" stroke-linecap="round" class="BottomRight"></path><path d="M229 190L412 373" stroke-width="10" stroke="url(&quot;#SvgjsLinearGradient1087&quot;)" stroke-linecap="round" class="TopLeft"></path><path d="M205 722L67 584" stroke-width="6" stroke="url(&quot;#SvgjsLinearGradient1086&quot;)" stroke-linecap="round" class="BottomRight"></path><path d="M395 918L223 746" stroke-width="8" stroke="url(&quot;#SvgjsLinearGradient1086&quot;)" stroke-linecap="round" class="BottomRight"></path><path d="M13 876L-193 670" stroke-width="8" stroke="url(&quot;#SvgjsLinearGradient1087&quot;)" stroke-linecap="round" class="TopLeft"></path><path d="M257 736L404 883" stroke-width="8" stroke="url(&quot;#SvgjsLinearGradient1086&quot;)" stroke-linecap="round" class="BottomRight"></path><path d="M393 448L132 187" stroke-width="6" stroke="url(&quot;#SvgjsLinearGradient1086&quot;)" stroke-linecap="round" class="BottomRight"></path><path d="M198 626L322 750" stroke-width="6" stroke="url(&quot;#SvgjsLinearGradient1087&quot;)" stroke-linecap="round" class="TopLeft"></path><path d="M198 238L327 367" stroke-width="8" stroke="url(&quot;#SvgjsLinearGradient1086&quot;)" stroke-linecap="round" class="BottomRight"></path><path d="M275 940L552 1217" stroke-width="6" stroke="url(&quot;#SvgjsLinearGradient1086&quot;)" stroke-linecap="round" class="BottomRight"></path><path d="M346 379L216 249" stroke-width="8" stroke="url(&quot;#SvgjsLinearGradient1086&quot;)" stroke-linecap="round" class="BottomRight"></path><path d="M130 400L303 573" stroke-width="6" stroke="url(&quot;#SvgjsLinearGradient1087&quot;)" stroke-linecap="round" class="TopLeft"></path><path d="M279 395L546 662" stroke-width="6" stroke="url(&quot;#SvgjsLinearGradient1087&quot;)" stroke-linecap="round" class="TopLeft"></path><path d="M166 355L426 615" stroke-width="8" stroke="url(&quot;#SvgjsLinearGradient1087&quot;)" stroke-linecap="round" class="TopLeft"></path><path d="M41 648L255 862" stroke-width="10" stroke="url(&quot;#SvgjsLinearGradient1086&quot;)" stroke-linecap="round" class="BottomRight"></path><path d="M377 437L670 730" stroke-width="6" stroke="url(&quot;#SvgjsLinearGradient1086&quot;)" stroke-linecap="round" class="BottomRight"></path><path d="M334 838L511 1015" stroke-width="10" stroke="url(&quot;#SvgjsLinearGradient1086&quot;)" stroke-linecap="round" class="BottomRight"></path><path d="M225 586L336 697" stroke-width="8" stroke="url(&quot;#SvgjsLinearGradient1087&quot;)" stroke-linecap="round" class="TopLeft"></path><path d="M388 921L256 789" stroke-width="6" stroke="url(&quot;#SvgjsLinearGradient1086&quot;)" stroke-linecap="round" class="BottomRight"></path><path d="M35 139L141 245" stroke-width="6" stroke="url(&quot;#SvgjsLinearGradient1086&quot;)" stroke-linecap="round" class="BottomRight"></path><path d="M182 362L287 467" stroke-width="8" stroke="url(&quot;#SvgjsLinearGradient1087&quot;)" stroke-linecap="round" class="TopLeft"></path><path d="M358 545L647 834" stroke-width="8" stroke="url(&quot;#SvgjsLinearGradient1087&quot;)" stroke-linecap="round" class="TopLeft"></path><path d="M228 666L124 562" stroke-width="10" stroke="url(&quot;#SvgjsLinearGradient1087&quot;)" stroke-linecap="round" class="TopLeft"></path><path d="M337 103L539 305" stroke-width="6" stroke="url(&quot;#SvgjsLinearGradient1087&quot;)" stroke-linecap="round" class="TopLeft"></path></g><defs><mask id="SvgjsMask1085"><rect width="400" height="950" fill="#ffffff"></rect></mask><linearGradient x1="0%" y1="0%" x2="100%" y2="100%" id="SvgjsLinearGradient1086"><stop stop-color="rgba(184, 115, 51, 0)" offset="0"></stop><stop stop-color="rgba(184, 115, 51, 1)" offset="1"></stop></linearGradient><linearGradient x1="100%" y1="100%" x2="0%" y2="0%" id="SvgjsLinearGradient1087"><stop stop-color="rgba(184, 115, 51, 0)" offset="0"></stop><stop stop-color="rgba(184, 115, 51, 1)" offset="1"></stop></linearGradient></defs></svg>