<svg xmlns="http://www.w3.org/2000/svg" version="1.1" xmlns:xlink="http://www.w3.org/1999/xlink" xmlns:svgjs="http://svgjs.dev/svgjs" width="400" height="950" preserveAspectRatio="none" viewBox="0 0 400 950"><g mask="url(&quot;#SvgjsMask1079&quot;)" fill="none"><rect width="400" height="950" x="0" y="0" fill="rgba(0, 0, 0, 1)"></rect><path d="M74 431L261 618" stroke-width="10" stroke="url(&quot;#SvgjsLinearGradient1080&quot;)" stroke-linecap="round" class="BottomRight"></path><path d="M341 622L151 432" stroke-width="6" stroke="url(&quot;#SvgjsLinearGradient1080&quot;)" stroke-linecap="round" class="BottomRight"></path><path d="M296 11L397 112" stroke-width="10" stroke="url(&quot;#SvgjsLinearGradient1081&quot;)" stroke-linecap="round" class="TopLeft"></path><path d="M118 423L-76 229" stroke-width="8" stroke="url(&quot;#SvgjsLinearGradient1081&quot;)" stroke-linecap="round" class="TopLeft"></path><path d="M268 383L447 562" stroke-width="6" stroke="url(&quot;#SvgjsLinearGradient1081&quot;)" stroke-linecap="round" class="TopLeft"></path><path d="M169 881L343 1055" stroke-width="8" stroke="url(&quot;#SvgjsLinearGradient1080&quot;)" stroke-linecap="round" class="BottomRight"></path><path d="M398 172L226 0" stroke-width="10" stroke="url(&quot;#SvgjsLinearGradient1081&quot;)" stroke-linecap="round" class="TopLeft"></path><path d="M175 62L-35 -148" stroke-width="10" stroke="url(&quot;#SvgjsLinearGradient1081&quot;)" stroke-linecap="round" class="TopLeft"></path><path d="M92 73L373 354" stroke-width="10" stroke="url(&quot;#SvgjsLinearGradient1081&quot;)" stroke-linecap="round" class="TopLeft"></path><path d="M6 535L164 693" stroke-width="6" stroke="url(&quot;#SvgjsLinearGradient1080&quot;)" stroke-linecap="round" class="BottomRight"></path><path d="M80 180L316 416" stroke-width="6" stroke="url(&quot;#SvgjsLinearGradient1080&quot;)" stroke-linecap="round" class="BottomRight"></path><path d="M362 29L567 234" stroke-width="10" stroke="url(&quot;#SvgjsLinearGradient1081&quot;)" stroke-linecap="round" class="TopLeft"></path><path d="M330 728L531 929" stroke-width="6" stroke="url(&quot;#SvgjsLinearGradient1081&quot;)" stroke-linecap="round" class="TopLeft"></path><path d="M314 848L519 1053" stroke-width="8" stroke="url(&quot;#SvgjsLinearGradient1081&quot;)" stroke-linecap="round" class="TopLeft"></path><path d="M288 121L547 380" stroke-width="6" stroke="url(&quot;#SvgjsLinearGradient1081&quot;)" stroke-linecap="round" class="TopLeft"></path><path d="M97 570L-97 376" stroke-width="6" stroke="url(&quot;#SvgjsLinearGradient1080&quot;)" stroke-linecap="round" class="BottomRight"></path><path d="M308 720L596 1008" stroke-width="10" stroke="url(&quot;#SvgjsLinearGradient1080&quot;)" stroke-linecap="round" class="BottomRight"></path><path d="M184 313L34 163" stroke-width="8" stroke="url(&quot;#SvgjsLinearGradient1081&quot;)" stroke-linecap="round" class="TopLeft"></path><path d="M391 389L286 284" stroke-width="8" stroke="url(&quot;#SvgjsLinearGradient1081&quot;)" stroke-linecap="round" class="TopLeft"></path><path d="M280 838L396 954" stroke-width="6" stroke="url(&quot;#SvgjsLinearGradient1080&quot;)" stroke-linecap="round" class="BottomRight"></path><path d="M323 546L198 421" stroke-width="6" stroke="url(&quot;#SvgjsLinearGradient1081&quot;)" stroke-linecap="round" class="TopLeft"></path><path d="M340 521L183 364" stroke-width="10" stroke="url(&quot;#SvgjsLinearGradient1081&quot;)" stroke-linecap="round" class="TopLeft"></path><path d="M184 930L81 827" stroke-width="10" stroke="url(&quot;#SvgjsLinearGradient1081&quot;)" stroke-linecap="round" class="TopLeft"></path><path d="M291 754L531 994" stroke-width="6" stroke="url(&quot;#SvgjsLinearGradient1081&quot;)" stroke-linecap="round" class="TopLeft"></path><path d="M169 620L343 794" stroke-width="6" stroke="url(&quot;#SvgjsLinearGradient1081&quot;)" stroke-linecap="round" class="TopLeft"></path><path d="M219 945L414 1140" stroke-width="6" stroke="url(&quot;#SvgjsLinearGradient1081&quot;)" stroke-linecap="round" class="TopLeft"></path></g><defs><mask id="SvgjsMask1079"><rect width="400" height="950" fill="#ffffff"></rect></mask><linearGradient x1="0%" y1="0%" x2="100%" y2="100%" id="SvgjsLinearGradient1080"><stop stop-color="rgba(222, 178, 69, 0)" offset="0"></stop><stop stop-color="rgba(222, 178, 69, 1)" offset="1"></stop></linearGradient><linearGradient x1="100%" y1="100%" x2="0%" y2="0%" id="SvgjsLinearGradient1081"><stop stop-color="rgba(222, 178, 69, 0)" offset="0"></stop><stop stop-color="rgba(222, 178, 69, 1)" offset="1"></stop></linearGradient></defs></svg>